<svg xmlns="http://www.w3.org/2000/svg" version="1.1" x="0px" y="0px" style="enable-background:new 0 0 841.89 595.28;"
     xml:space="preserve" viewBox="275.45 156.55 291 288.88"> <style type="text/css"> 	.st0{fill:#2a2c74;} </style> <g id="Layer_2"> </g> <g id="Layer_3"> </g> <g id="Layer_1"> 	<g> 		<g> 			<g> 				<path class="st0" d="M566.45,302.05c0-80.36-65.14-145.5-145.5-145.5c-80.36,0-145.5,65.14-145.5,145.5      c0,71.07,50.96,130.23,118.33,142.96c13.3,1.75,18.35-1.93,19.34-12.05c1.67-26.24,1.58-52.5,1.58-65.15      c0-35.99-17.21-37.53-44.82-47.57c-28.05-10.2-57.39-24.96-57.39-58.33c0-22.66,18.37-41.02,41.02-41.02      c35.78,0,58.81,44.08,67.23,89.34l0,0c0,0,0.05,0.21,0.21,0.21c0.16,0,0.21-0.21,0.21-0.21l0,0      c8.42-45.26,31.45-89.34,67.23-89.34c22.66,0,41.02,18.37,41.02,41.02c0,33.37-29.34,48.13-57.39,58.33      c-27.61,10.04-44.82,11.58-44.82,47.57c0,12.65-0.09,38.91,1.58,65.15c0.99,10.12,6.04,13.8,19.35,12.05      C515.49,432.27,566.45,373.12,566.45,302.05z"/> 			</g> 		</g> 	</g> </g> </svg>